<?xml version="1.0" encoding="UTF-8" standalone="no"?><svg xmlns="http://www.w3.org/2000/svg" xmlns:xlink="http://www.w3.org/1999/xlink" contentStyleType="text/css" height="734px" preserveAspectRatio="none" style="width:1165px;height:734px;background:#FFFFFF;" version="1.1" viewBox="0 0 1165 734" width="1165px" zoomAndPan="magnify"><defs/><g><!--MD5=[d1aca5112466275106e9a5da8befcbb3]
class blocks--><g id="elem_blocks"><rect codeLine="2" fill="#F1F1F1" height="136.0469" id="blocks" rx="2.5" ry="2.5" style="stroke:#181818;stroke-width:0.5;" width="161" x="259" y="7"/><ellipse cx="315.25" cy="23" fill="#ADD1B2" rx="11" ry="11" style="stroke:#181818;stroke-width:1.0;"/><path d="M313.7813,21.8594 L318.2969,21.8594 L318.2969,23.125 L313.7813,23.125 L313.7813,28.1094 L319.0156,28.1094 L319.0156,29.3594 L311.25,29.3594 L311.25,16.4219 L318.6875,16.4219 L318.6875,17.6719 L313.7813,17.6719 L313.7813,21.8594 Z " fill="#000000"/><text fill="#000000" font-family="sans-serif" font-size="14" lengthAdjust="spacing" textLength="40" x="335.75" y="28.7285">blocks</text><line style="stroke:#181818;stroke-width:0.5;" x1="260" x2="419" y1="39" y2="39"/><text fill="#000000" font-family="sans-serif" font-size="14" lengthAdjust="spacing" textLength="101" x="265" y="57.5332">id: BIGINT «PK»</text><line style="stroke:#181818;stroke-width:1.0;" x1="260" x2="419" y1="64.6094" y2="64.6094"/><text fill="#000000" font-family="sans-serif" font-size="14" lengthAdjust="spacing" textLength="91" x="265" y="83.1426">height: BIGINT</text><text fill="#000000" font-family="sans-serif" font-size="14" lengthAdjust="spacing" textLength="103" x="265" y="100.752">time: DATETIME</text><text fill="#000000" font-family="sans-serif" font-size="14" lengthAdjust="spacing" textLength="145" x="265" y="118.3613">created_at: DATETIME</text><text fill="#000000" font-family="sans-serif" font-size="14" lengthAdjust="spacing" textLength="149" x="265" y="135.9707">updated_at: DATETIME</text></g><!--MD5=[7f8e26d1a6333c7a5877a54d3f917b5b]
class transactions--><g id="elem_transactions"><rect codeLine="11" fill="#F1F1F1" height="153.6563" id="transactions" rx="2.5" ry="2.5" style="stroke:#181818;stroke-width:0.5;" width="169" x="255" y="264"/><ellipse cx="297" cy="280" fill="#ADD1B2" rx="11" ry="11" style="stroke:#181818;stroke-width:1.0;"/><path d="M295.5313,278.8594 L300.0469,278.8594 L300.0469,280.125 L295.5313,280.125 L295.5313,285.1094 L300.7656,285.1094 L300.7656,286.3594 L293,286.3594 L293,273.4219 L300.4375,273.4219 L300.4375,274.6719 L295.5313,274.6719 L295.5313,278.8594 Z " fill="#000000"/><text fill="#000000" font-family="sans-serif" font-size="14" lengthAdjust="spacing" textLength="77" x="317" y="285.7285">transactions</text><line style="stroke:#181818;stroke-width:0.5;" x1="256" x2="423" y1="296" y2="296"/><text fill="#000000" font-family="sans-serif" font-size="14" lengthAdjust="spacing" textLength="101" x="261" y="314.5332">id: BIGINT «PK»</text><line style="stroke:#181818;stroke-width:1.0;" x1="256" x2="423" y1="321.6094" y2="321.6094"/><text fill="#000000" font-family="sans-serif" font-size="14" lengthAdjust="spacing" textLength="157" x="261" y="340.1426">block_id: BIGINT «index»</text><text fill="#000000" font-family="sans-serif" font-size="14" lengthAdjust="spacing" textLength="139" x="261" y="357.752">hash: VARCHAR(191)</text><text fill="#000000" font-family="sans-serif" font-size="14" lengthAdjust="spacing" textLength="92" x="261" y="375.3613">raw_log: TEXT</text><text fill="#000000" font-family="sans-serif" font-size="14" lengthAdjust="spacing" textLength="145" x="261" y="392.9707">created_at: DATETIME</text><text fill="#000000" font-family="sans-serif" font-size="14" lengthAdjust="spacing" textLength="149" x="261" y="410.5801">updated_at: DATETIME</text></g><!--MD5=[9d71f470b7de0936f27a3d601aca7a82]
class identifiers--><g id="elem_identifiers"><rect codeLine="21" fill="#F1F1F1" height="118.4375" id="identifiers" rx="2.5" ry="2.5" style="stroke:#181818;stroke-width:0.5;" width="174" x="536.5" y="282"/><ellipse cx="588.75" cy="298" fill="#ADD1B2" rx="11" ry="11" style="stroke:#181818;stroke-width:1.0;"/><path d="M587.2813,296.8594 L591.7969,296.8594 L591.7969,298.125 L587.2813,298.125 L587.2813,303.1094 L592.5156,303.1094 L592.5156,304.3594 L584.75,304.3594 L584.75,291.4219 L592.1875,291.4219 L592.1875,292.6719 L587.2813,292.6719 L587.2813,296.8594 Z " fill="#000000"/><text fill="#000000" font-family="sans-serif" font-size="14" lengthAdjust="spacing" textLength="61" x="609.25" y="303.7285">identifiers</text><line style="stroke:#181818;stroke-width:0.5;" x1="537.5" x2="709.5" y1="314" y2="314"/><text fill="#000000" font-family="sans-serif" font-size="14" lengthAdjust="spacing" textLength="101" x="542.5" y="332.5332">id: BIGINT «PK»</text><line style="stroke:#181818;stroke-width:1.0;" x1="537.5" x2="709.5" y1="339.6094" y2="339.6094"/><text fill="#000000" font-family="sans-serif" font-size="14" lengthAdjust="spacing" textLength="162" x="542.5" y="358.1426">identifier: VARCHAR(191)</text><text fill="#000000" font-family="sans-serif" font-size="14" lengthAdjust="spacing" textLength="145" x="542.5" y="375.752">created_at: DATETIME</text><text fill="#000000" font-family="sans-serif" font-size="14" lengthAdjust="spacing" textLength="149" x="542.5" y="393.3613">updated_at: DATETIME</text></g><!--MD5=[496d0730ed66285dd669317e81c9f0fa]
class change_controller_messages--><g id="elem_change_controller_messages"><rect codeLine="29" fill="#F1F1F1" height="153.6563" id="change_controller_messages" rx="2.5" ry="2.5" style="stroke:#181818;stroke-width:0.5;" width="218" x="249.5" y="556.5"/><ellipse cx="264.5" cy="572.5" fill="#ADD1B2" rx="11" ry="11" style="stroke:#181818;stroke-width:1.0;"/><path d="M263.0313,571.3594 L267.5469,571.3594 L267.5469,572.625 L263.0313,572.625 L263.0313,577.6094 L268.2656,577.6094 L268.2656,578.8594 L260.5,578.8594 L260.5,565.9219 L267.9375,565.9219 L267.9375,567.1719 L263.0313,567.1719 L263.0313,571.3594 Z " fill="#000000"/><text fill="#000000" font-family="sans-serif" font-size="14" lengthAdjust="spacing" textLength="186" x="278.5" y="578.2285">change_controller_messages</text><line style="stroke:#181818;stroke-width:0.5;" x1="250.5" x2="466.5" y1="588.5" y2="588.5"/><text fill="#000000" font-family="sans-serif" font-size="14" lengthAdjust="spacing" textLength="101" x="255.5" y="607.0332">id: BIGINT «PK»</text><line style="stroke:#181818;stroke-width:1.0;" x1="250.5" x2="466.5" y1="614.1094" y2="614.1094"/><text fill="#000000" font-family="sans-serif" font-size="14" lengthAdjust="spacing" textLength="194" x="255.5" y="632.6426">transaction_id: BIGINT «index»</text><text fill="#000000" font-family="sans-serif" font-size="14" lengthAdjust="spacing" textLength="178" x="255.5" y="650.252">identifier_id: BIGINT «index»</text><text fill="#000000" font-family="sans-serif" font-size="14" lengthAdjust="spacing" textLength="200" x="255.5" y="667.8613">new_controller: VARCHAR(191)</text><text fill="#000000" font-family="sans-serif" font-size="14" lengthAdjust="spacing" textLength="145" x="255.5" y="685.4707">created_at: DATETIME</text><text fill="#000000" font-family="sans-serif" font-size="14" lengthAdjust="spacing" textLength="149" x="255.5" y="703.0801">updated_at: DATETIME</text></g><!--MD5=[8bb7435d9d399d769c9c02cf625f3f9b]
class set_attribute_messages--><g id="elem_set_attribute_messages"><rect codeLine="39" fill="#F1F1F1" height="188.875" id="set_attribute_messages" rx="2.5" ry="2.5" style="stroke:#181818;stroke-width:0.5;" width="206" x="502.5" y="539"/><ellipse cx="527.85" cy="555" fill="#ADD1B2" rx="11" ry="11" style="stroke:#181818;stroke-width:1.0;"/><path d="M526.3813,553.8594 L530.8969,553.8594 L530.8969,555.125 L526.3813,555.125 L526.3813,560.1094 L531.6156,560.1094 L531.6156,561.3594 L523.85,561.3594 L523.85,548.4219 L531.2875,548.4219 L531.2875,549.6719 L526.3813,549.6719 L526.3813,553.8594 Z " fill="#000000"/><text fill="#000000" font-family="sans-serif" font-size="14" lengthAdjust="spacing" textLength="151" x="544.15" y="560.7285">set_attribute_messages</text><line style="stroke:#181818;stroke-width:0.5;" x1="503.5" x2="707.5" y1="571" y2="571"/><text fill="#000000" font-family="sans-serif" font-size="14" lengthAdjust="spacing" textLength="101" x="508.5" y="589.5332">id: BIGINT «PK»</text><line style="stroke:#181818;stroke-width:1.0;" x1="503.5" x2="707.5" y1="596.6094" y2="596.6094"/><text fill="#000000" font-family="sans-serif" font-size="14" lengthAdjust="spacing" textLength="194" x="508.5" y="615.1426">transaction_id: BIGINT «index»</text><text fill="#000000" font-family="sans-serif" font-size="14" lengthAdjust="spacing" textLength="178" x="508.5" y="632.752">identifier_id: BIGINT «index»</text><text fill="#000000" font-family="sans-serif" font-size="14" lengthAdjust="spacing" textLength="65" x="508.5" y="650.3613">key: TEXT</text><text fill="#000000" font-family="sans-serif" font-size="14" lengthAdjust="spacing" textLength="77" x="508.5" y="667.9707">value: TEXT</text><text fill="#000000" font-family="sans-serif" font-size="14" lengthAdjust="spacing" textLength="95" x="508.5" y="685.5801">validity: BIGINT</text><text fill="#000000" font-family="sans-serif" font-size="14" lengthAdjust="spacing" textLength="145" x="508.5" y="703.1895">created_at: DATETIME</text><text fill="#000000" font-family="sans-serif" font-size="14" lengthAdjust="spacing" textLength="149" x="508.5" y="720.7988">updated_at: DATETIME</text></g><!--MD5=[f2de185cc0680a346fb170b36ee557af]
class revoke_attribute_messages--><g id="elem_revoke_attribute_messages"><rect codeLine="51" fill="#F1F1F1" height="171.2656" id="revoke_attribute_messages" rx="2.5" ry="2.5" style="stroke:#181818;stroke-width:0.5;" width="207" x="7" y="548"/><ellipse cx="22" cy="564" fill="#ADD1B2" rx="11" ry="11" style="stroke:#181818;stroke-width:1.0;"/><path d="M20.5313,562.8594 L25.0469,562.8594 L25.0469,564.125 L20.5313,564.125 L20.5313,569.1094 L25.7656,569.1094 L25.7656,570.3594 L18,570.3594 L18,557.4219 L25.4375,557.4219 L25.4375,558.6719 L20.5313,558.6719 L20.5313,562.8594 Z " fill="#000000"/><text fill="#000000" font-family="sans-serif" font-size="14" lengthAdjust="spacing" textLength="175" x="36" y="569.7285">revoke_attribute_messages</text><line style="stroke:#181818;stroke-width:0.5;" x1="8" x2="213" y1="580" y2="580"/><text fill="#000000" font-family="sans-serif" font-size="14" lengthAdjust="spacing" textLength="101" x="13" y="598.5332">id: BIGINT «PK»</text><line style="stroke:#181818;stroke-width:1.0;" x1="8" x2="213" y1="605.6094" y2="605.6094"/><text fill="#000000" font-family="sans-serif" font-size="14" lengthAdjust="spacing" textLength="194" x="13" y="624.1426">transaction_id: BIGINT «index»</text><text fill="#000000" font-family="sans-serif" font-size="14" lengthAdjust="spacing" textLength="178" x="13" y="641.752">identifier_id: BIGINT «index»</text><text fill="#000000" font-family="sans-serif" font-size="14" lengthAdjust="spacing" textLength="78" x="13" y="659.3613">name: TEXT</text><text fill="#000000" font-family="sans-serif" font-size="14" lengthAdjust="spacing" textLength="77" x="13" y="676.9707">value: TEXT</text><text fill="#000000" font-family="sans-serif" font-size="14" lengthAdjust="spacing" textLength="145" x="13" y="694.5801">created_at: DATETIME</text><text fill="#000000" font-family="sans-serif" font-size="14" lengthAdjust="spacing" textLength="149" x="13" y="712.1895">updated_at: DATETIME</text></g><!--MD5=[301f2e77308a9ba28a66bf4bdcec452a]
class controllers--><g id="elem_controllers"><rect codeLine="62" fill="#F1F1F1" height="153.6563" id="controllers" rx="2.5" ry="2.5" style="stroke:#181818;stroke-width:0.5;" width="190" x="968.5" y="556.5"/><ellipse cx="1026.25" cy="572.5" fill="#ADD1B2" rx="11" ry="11" style="stroke:#181818;stroke-width:1.0;"/><path d="M1024.7813,571.3594 L1029.2969,571.3594 L1029.2969,572.625 L1024.7813,572.625 L1024.7813,577.6094 L1030.0156,577.6094 L1030.0156,578.8594 L1022.25,578.8594 L1022.25,565.9219 L1029.6875,565.9219 L1029.6875,567.1719 L1024.7813,567.1719 L1024.7813,571.3594 Z " fill="#000000"/><text fill="#000000" font-family="sans-serif" font-size="14" lengthAdjust="spacing" textLength="66" x="1046.75" y="578.2285">controllers</text><line style="stroke:#181818;stroke-width:0.5;" x1="969.5" x2="1157.5" y1="588.5" y2="588.5"/><text fill="#000000" font-family="sans-serif" font-size="14" lengthAdjust="spacing" textLength="101" x="974.5" y="607.0332">id: BIGINT «PK»</text><line style="stroke:#181818;stroke-width:1.0;" x1="969.5" x2="1157.5" y1="614.1094" y2="614.1094"/><text fill="#000000" font-family="sans-serif" font-size="14" lengthAdjust="spacing" textLength="178" x="974.5" y="632.6426">identifier_id: BIGINT «index»</text><text fill="#000000" font-family="sans-serif" font-size="14" lengthAdjust="spacing" textLength="98" x="974.5" y="650.252">version: BIGINT</text><text fill="#000000" font-family="sans-serif" font-size="14" lengthAdjust="spacing" textLength="167" x="974.5" y="667.8613">controller: VARCHAR(191)</text><text fill="#000000" font-family="sans-serif" font-size="14" lengthAdjust="spacing" textLength="145" x="974.5" y="685.4707">created_at: DATETIME</text><text fill="#000000" font-family="sans-serif" font-size="14" lengthAdjust="spacing" textLength="149" x="974.5" y="703.0801">updated_at: DATETIME</text></g><!--MD5=[590eedcf42c4b840e61ab79854d36b1e]
class documents--><g id="elem_documents"><rect codeLine="72" fill="#F1F1F1" height="153.6563" id="documents" rx="2.5" ry="2.5" style="stroke:#181818;stroke-width:0.5;" width="190" x="743.5" y="556.5"/><ellipse cx="799.75" cy="572.5" fill="#ADD1B2" rx="11" ry="11" style="stroke:#181818;stroke-width:1.0;"/><path d="M798.2813,571.3594 L802.7969,571.3594 L802.7969,572.625 L798.2813,572.625 L798.2813,577.6094 L803.5156,577.6094 L803.5156,578.8594 L795.75,578.8594 L795.75,565.9219 L803.1875,565.9219 L803.1875,567.1719 L798.2813,567.1719 L798.2813,571.3594 Z " fill="#000000"/><text fill="#000000" font-family="sans-serif" font-size="14" lengthAdjust="spacing" textLength="69" x="820.25" y="578.2285">documents</text><line style="stroke:#181818;stroke-width:0.5;" x1="744.5" x2="932.5" y1="588.5" y2="588.5"/><text fill="#000000" font-family="sans-serif" font-size="14" lengthAdjust="spacing" textLength="101" x="749.5" y="607.0332">id: BIGINT «PK»</text><line style="stroke:#181818;stroke-width:1.0;" x1="744.5" x2="932.5" y1="614.1094" y2="614.1094"/><text fill="#000000" font-family="sans-serif" font-size="14" lengthAdjust="spacing" textLength="178" x="749.5" y="632.6426">identifier_id: BIGINT «index»</text><text fill="#000000" font-family="sans-serif" font-size="14" lengthAdjust="spacing" textLength="98" x="749.5" y="650.252">version: BIGINT</text><text fill="#000000" font-family="sans-serif" font-size="14" lengthAdjust="spacing" textLength="90" x="749.5" y="667.8613">content: TEXT</text><text fill="#000000" font-family="sans-serif" font-size="14" lengthAdjust="spacing" textLength="145" x="749.5" y="685.4707">created_at: DATETIME</text><text fill="#000000" font-family="sans-serif" font-size="14" lengthAdjust="spacing" textLength="149" x="749.5" y="703.0801">updated_at: DATETIME</text></g><!--MD5=[44b8788477082afc443424fe0a5d017a]
link blocks to transactions--><g id="link_blocks_transactions"><path codeLine="82" d="M339.5,151.64 C339.5,184.11 339.5,222.19 339.5,255.58 " fill="none" id="blocks-transactions" style="stroke:#181818;stroke-width:1.0;"/><line style="stroke:#181818;stroke-width:1.0;" x1="339.5" x2="345.5" y1="255.96" y2="263.96"/><line style="stroke:#181818;stroke-width:1.0;" x1="339.5" x2="333.5" y1="255.96" y2="263.96"/><line style="stroke:#181818;stroke-width:1.0;" x1="339.5" x2="339.5" y1="255.96" y2="263.96"/><ellipse cx="339.5" cy="249.96" fill="none" rx="4" ry="4" style="stroke:#181818;stroke-width:1.0;"/><line style="stroke:#181818;stroke-width:1.0;" x1="335.5" x2="343.5" y1="147.3" y2="147.3"/><line style="stroke:#181818;stroke-width:1.0;" x1="335.5" x2="343.5" y1="150.3" y2="150.3"/><line style="stroke:#181818;stroke-width:1.0;" x1="339.5" x2="339.5" y1="151.3" y2="143.3"/></g><!--MD5=[aa33b91ec8118f13fb02ab088939c7fd]
link transactions to change_controller_messages--><g id="link_transactions_change_controller_messages"><path codeLine="83" d="M345.02,426.43 C347.53,464.79 350.49,510.05 353,548.37 " fill="none" id="transactions-change_controller_messages" style="stroke:#181818;stroke-width:1.0;"/><line style="stroke:#181818;stroke-width:1.0;" x1="353.0059" x2="359.5076" y1="548.4465" y2="556.0444"/><line style="stroke:#181818;stroke-width:1.0;" x1="353.0059" x2="347.5324" y1="548.4465" y2="556.8156"/><line style="stroke:#181818;stroke-width:1.0;" x1="353.0059" x2="353.52" y1="548.4465" y2="556.43"/><ellipse cx="352.6203" cy="542.4589" fill="none" rx="4" ry="4" style="stroke:#181818;stroke-width:1.0;"/><line style="stroke:#181818;stroke-width:1.0;" x1="340.7553" x2="348.7388" y1="422.5788" y2="422.0647"/><line style="stroke:#181818;stroke-width:1.0;" x1="340.9481" x2="348.9316" y1="425.5726" y2="425.0585"/><line style="stroke:#181818;stroke-width:1.0;" x1="345.0041" x2="344.49" y1="426.3135" y2="418.33"/></g><!--MD5=[4e24ec5b271df59b14d2d24c9c484921]
link transactions to set_attribute_messages--><g id="link_transactions_set_attribute_messages"><path codeLine="84" d="M414.99,424.45 C445.84,458.14 481.81,497.42 514.13,532.71 " fill="none" id="transactions-set_attribute_messages" style="stroke:#181818;stroke-width:1.0;"/><line style="stroke:#181818;stroke-width:1.0;" x1="514.2987" x2="524.126" y1="532.8886" y2="534.7391"/><line style="stroke:#181818;stroke-width:1.0;" x1="514.2987" x2="515.274" y1="532.8886" y2="542.8409"/><line style="stroke:#181818;stroke-width:1.0;" x1="514.2987" x2="519.7" y1="532.8886" y2="538.79"/><ellipse cx="510.2478" cy="528.4626" fill="none" rx="4" ry="4" style="stroke:#181818;stroke-width:1.0;"/><line style="stroke:#181818;stroke-width:1.0;" x1="409.1474" x2="415.0416" y1="423.9816" y2="418.5726"/><line style="stroke:#181818;stroke-width:1.0;" x1="411.1758" x2="417.07" y1="426.192" y2="420.783"/><line style="stroke:#181818;stroke-width:1.0;" x1="414.799" x2="409.39" y1="424.2243" y2="418.33"/></g><!--MD5=[d37eb5d29e331f5a41ef0f8d0e332181]
link transactions to revoke_attribute_messages--><g id="link_transactions_revoke_attribute_messages"><path codeLine="85" d="M274.12,424.94 C245.4,461.38 211.58,504.27 182.17,541.58 " fill="none" id="transactions-revoke_attribute_messages" style="stroke:#181818;stroke-width:1.0;"/><line style="stroke:#181818;stroke-width:1.0;" x1="182.0651" x2="181.8364" y1="541.7014" y2="551.6988"/><line style="stroke:#181818;stroke-width:1.0;" x1="182.0651" x2="172.4036" y1="541.7014" y2="544.2812"/><line style="stroke:#181818;stroke-width:1.0;" x1="182.0651" x2="177.12" y1="541.7014" y2="547.99"/><ellipse cx="185.7739" cy="536.985" fill="none" rx="4" ry="4" style="stroke:#181818;stroke-width:1.0;"/><line style="stroke:#181818;stroke-width:1.0;" x1="273.7122" x2="279.9939" y1="418.9939" y2="423.9478"/><line style="stroke:#181818;stroke-width:1.0;" x1="271.8545" x2="278.1361" y1="421.3495" y2="426.3034"/><line style="stroke:#181818;stroke-width:1.0;" x1="274.3761" x2="279.33" y1="424.6116" y2="418.33"/></g><!--MD5=[57eecc5514bcdf25cacc23e98b75ea25]
link identifiers to change_controller_messages--><g id="link_identifiers_change_controller_messages"><path codeLine="87" d="M564.9,406.24 C526.22,448.64 475.18,504.59 433.54,550.24 " fill="none" id="identifiers-change_controller_messages" style="stroke:#181818;stroke-width:1.0;"/><line style="stroke:#181818;stroke-width:1.0;" x1="433.3842" x2="432.4209" y1="550.4121" y2="560.3656"/><line style="stroke:#181818;stroke-width:1.0;" x1="433.3842" x2="423.5591" y1="550.4121" y2="552.2744"/><line style="stroke:#181818;stroke-width:1.0;" x1="433.3842" x2="427.99" y1="550.4121" y2="556.32"/><ellipse cx="437.4298" cy="545.9812" fill="none" rx="4" ry="4" style="stroke:#181818;stroke-width:1.0;"/><line style="stroke:#181818;stroke-width:1.0;" x1="564.859" x2="570.7669" y1="400.3469" y2="405.741"/><line style="stroke:#181818;stroke-width:1.0;" x1="562.8362" x2="568.7441" y1="402.5623" y2="407.9565"/><line style="stroke:#181818;stroke-width:1.0;" x1="565.1158" x2="570.51" y1="405.9979" y2="400.09"/></g><!--MD5=[28d62540376fe16cd70066b6c643b0ba]
link identifiers to set_attribute_messages--><g id="link_identifiers_set_attribute_messages"><path codeLine="88" d="M619.4,408.16 C617.16,444.39 614.33,490.05 611.81,530.71 " fill="none" id="identifiers-set_attribute_messages" style="stroke:#181818;stroke-width:1.0;"/><line style="stroke:#181818;stroke-width:1.0;" x1="611.7957" x2="617.2989" y1="530.7848" y2="539.1343"/><line style="stroke:#181818;stroke-width:1.0;" x1="611.7957" x2="605.3211" y1="530.7848" y2="538.4057"/><line style="stroke:#181818;stroke-width:1.0;" x1="611.7957" x2="611.31" y1="530.7848" y2="538.77"/><ellipse cx="612.1599" cy="524.7958" fill="none" rx="4" ry="4" style="stroke:#181818;stroke-width:1.0;"/><line style="stroke:#181818;stroke-width:1.0;" x1="615.6579" x2="623.6422" y1="403.8322" y2="404.3321"/><line style="stroke:#181818;stroke-width:1.0;" x1="615.4704" x2="623.4548" y1="406.8264" y2="407.3263"/><line style="stroke:#181818;stroke-width:1.0;" x1="619.4001" x2="619.9" y1="408.0744" y2="400.09"/></g><!--MD5=[d90e5e7c9008e7ae6bb1bf4d04d28851]
link identifiers to revoke_attribute_messages--><g id="link_identifiers_revoke_attribute_messages"><path codeLine="89" d="M528.69,383.4 C447.54,420.29 328.76,477.78 231.5,539 C228.01,541.2 224.5,543.47 220.98,545.81 " fill="none" id="identifiers-revoke_attribute_messages" style="stroke:#181818;stroke-width:1.0;"/><line style="stroke:#181818;stroke-width:1.0;" x1="220.8321" x2="217.5554" y1="545.8962" y2="555.3441"/><line style="stroke:#181818;stroke-width:1.0;" x1="220.8321" x2="210.8446" y1="545.8962" y2="545.3959"/><line style="stroke:#181818;stroke-width:1.0;" x1="220.8321" x2="214.2" y1="545.8962" y2="550.37"/><ellipse cx="225.8062" cy="542.5408" fill="none" rx="4" ry="4" style="stroke:#181818;stroke-width:1.0;"/><line style="stroke:#181818;stroke-width:1.0;" x1="531.136" x2="534.4367" y1="377.9067" y2="385.194"/><line style="stroke:#181818;stroke-width:1.0;" x1="528.4032" x2="531.704" y1="379.1445" y2="386.4318"/><line style="stroke:#181818;stroke-width:1.0;" x1="529.1427" x2="536.43" y1="383.2007" y2="379.9"/></g><!--MD5=[fc654a37bc0e563291deb01dcc1e9620]
link identifiers to controllers--><g id="link_identifiers_controllers"><path codeLine="91" d="M717.97,393.57 C784.85,431.31 875.77,485.14 951.5,539 C957.06,542.96 962.7,547.12 968.32,551.39 " fill="none" id="identifiers-controllers" style="stroke:#181818;stroke-width:1.0;"/><line style="stroke:#181818;stroke-width:1.0;" x1="968.5753" x2="978.5746" y1="551.5871" y2="551.7015"/><line style="stroke:#181818;stroke-width:1.0;" x1="968.5753" x2="971.2654" y1="551.5871" y2="561.2185"/><line style="stroke:#181818;stroke-width:1.0;" x1="968.5753" x2="974.92" y1="551.5871" y2="556.46"/><ellipse cx="963.8168" cy="547.9325" fill="none" rx="4" ry="4" style="stroke:#181818;stroke-width:1.0;"/><line style="stroke:#181818;stroke-width:1.0;" x1="712.271" x2="716.1985" y1="394.9585" y2="387.989"/><line style="stroke:#181818;stroke-width:1.0;" x1="714.8846" x2="718.8121" y1="396.4313" y2="389.4618"/><line style="stroke:#181818;stroke-width:1.0;" x1="717.7196" x2="710.75" y1="393.4375" y2="389.51"/></g><!--MD5=[fe37244ecf6d28b07e68359be26fe952]
link identifiers to documents--><g id="link_identifiers_documents"><path codeLine="92" d="M671.45,406.78 C702.66,448.96 743.65,504.35 777.22,549.7 " fill="none" id="identifiers-documents" style="stroke:#181818;stroke-width:1.0;"/><line style="stroke:#181818;stroke-width:1.0;" x1="777.3613" x2="786.9431" y1="549.8893" y2="552.7509"/><line style="stroke:#181818;stroke-width:1.0;" x1="777.3613" x2="777.2969" y1="549.8893" y2="559.8891"/><line style="stroke:#181818;stroke-width:1.0;" x1="777.3613" x2="782.12" y1="549.8893" y2="556.32"/><ellipse cx="773.7922" cy="545.0662" fill="none" rx="4" ry="4" style="stroke:#181818;stroke-width:1.0;"/><line style="stroke:#181818;stroke-width:1.0;" x1="665.654" x2="672.0847" y1="405.6847" y2="400.926"/><line style="stroke:#181818;stroke-width:1.0;" x1="667.4385" x2="673.8693" y1="408.0963" y2="403.3375"/><line style="stroke:#181818;stroke-width:1.0;" x1="671.2487" x2="666.49" y1="406.5207" y2="400.09"/></g><!--MD5=[2b4c9b6efc7f34a4f25e3b7c1403732b]
@startuml

entity blocks {
  id: BIGINT <<PK>>
  - -
  height: BIGINT
  time: DATETIME
  created_at: DATETIME
  updated_at: DATETIME
}

entity transactions {
  id: BIGINT <<PK>>
  - -
  block_id: BIGINT <<index>>
  hash: VARCHAR(191)
  raw_log: TEXT
  created_at: DATETIME
  updated_at: DATETIME
}

entity identifiers {
  id: BIGINT <<PK>>
  - -
  identifier: VARCHAR(191)
  created_at: DATETIME
  updated_at: DATETIME
}

entity change_controller_messages {
  id: BIGINT <<PK>>
  - -
  transaction_id: BIGINT <<index>>
  identifier_id: BIGINT <<index>>
  new_controller: VARCHAR(191)
  created_at: DATETIME
  updated_at: DATETIME
}

entity set_attribute_messages {
  id: BIGINT <<PK>>
  - -
  transaction_id: BIGINT <<index>>
  identifier_id: BIGINT <<index>>
  key: TEXT
  value: TEXT
  validity: BIGINT
  created_at: DATETIME
  updated_at: DATETIME
}

entity revoke_attribute_messages {
  id: BIGINT <<PK>>
  - -
  transaction_id: BIGINT <<index>>
  identifier_id: BIGINT <<index>>
  name: TEXT
  value: TEXT
  created_at: DATETIME
  updated_at: DATETIME
}

entity controllers { 
  id: BIGINT <<PK>>
  - -
  identifier_id: BIGINT <<index>>
  version: BIGINT
  controller: VARCHAR(191)
  created_at: DATETIME
  updated_at: DATETIME
}

entity documents {
  id: BIGINT <<PK>>
  - -
  identifier_id: BIGINT <<index>>
  version: BIGINT
  content: TEXT
  created_at: DATETIME
  updated_at: DATETIME
}

blocks ||- - -o{ transactions
transactions ||- - -o{ change_controller_messages
transactions ||- - -o{ set_attribute_messages
transactions ||- - -o{ revoke_attribute_messages

identifiers ||- - -o{ change_controller_messages
identifiers ||- - -o{ set_attribute_messages
identifiers ||- - -o{ revoke_attribute_messages

identifiers ||- - -o{ controllers
identifiers ||- - -o{ documents

@enduml

PlantUML version 1.2022.7(Tue Aug 23 00:01:30 ICT 2022)
(GPL source distribution)
Java Runtime: Java(TM) SE Runtime Environment
JVM: Java HotSpot(TM) 64-Bit Server VM
Default Encoding: MS932
Language: en
Country: US
--></g></svg>