<?xml version="1.0" encoding="UTF-8" standalone="no"?><svg xmlns="http://www.w3.org/2000/svg" xmlns:xlink="http://www.w3.org/1999/xlink" contentStyleType="text/css" height="752px" preserveAspectRatio="none" style="width:994px;height:752px;background:#FFFFFF;" version="1.1" viewBox="0 0 994 752" width="994px" zoomAndPan="magnify"><defs/><g><!--MD5=[d1aca5112466275106e9a5da8befcbb3]
class blocks--><g id="elem_blocks"><rect codeLine="2" fill="#F1F1F1" height="136.0469" id="blocks" rx="2.5" ry="2.5" style="stroke:#181818;stroke-width:0.5;" width="161" x="302" y="16"/><ellipse cx="358.25" cy="32" fill="#ADD1B2" rx="11" ry="11" style="stroke:#181818;stroke-width:1.0;"/><path d="M356.7813,30.8594 L361.2969,30.8594 L361.2969,32.125 L356.7813,32.125 L356.7813,37.1094 L362.0156,37.1094 L362.0156,38.3594 L354.25,38.3594 L354.25,25.4219 L361.6875,25.4219 L361.6875,26.6719 L356.7813,26.6719 L356.7813,30.8594 Z " fill="#000000"/><text fill="#000000" font-family="sans-serif" font-size="14" lengthAdjust="spacing" textLength="40" x="378.75" y="37.7285">blocks</text><line style="stroke:#181818;stroke-width:0.5;" x1="303" x2="462" y1="48" y2="48"/><text fill="#000000" font-family="sans-serif" font-size="14" lengthAdjust="spacing" textLength="101" x="308" y="66.5332">id: BIGINT «PK»</text><line style="stroke:#181818;stroke-width:1.0;" x1="303" x2="462" y1="73.6094" y2="73.6094"/><text fill="#000000" font-family="sans-serif" font-size="14" lengthAdjust="spacing" textLength="91" x="308" y="92.1426">height: BIGINT</text><text fill="#000000" font-family="sans-serif" font-size="14" lengthAdjust="spacing" textLength="103" x="308" y="109.752">time: DATETIME</text><text fill="#000000" font-family="sans-serif" font-size="14" lengthAdjust="spacing" textLength="145" x="308" y="127.3613">created_at: DATETIME</text><text fill="#000000" font-family="sans-serif" font-size="14" lengthAdjust="spacing" textLength="149" x="308" y="144.9707">updated_at: DATETIME</text></g><!--MD5=[7f8e26d1a6333c7a5877a54d3f917b5b]
class transactions--><g id="elem_transactions"><rect codeLine="11" fill="#F1F1F1" height="153.6563" id="transactions" rx="2.5" ry="2.5" style="stroke:#181818;stroke-width:0.5;" width="169" x="298" y="282"/><ellipse cx="340" cy="298" fill="#ADD1B2" rx="11" ry="11" style="stroke:#181818;stroke-width:1.0;"/><path d="M338.5313,296.8594 L343.0469,296.8594 L343.0469,298.125 L338.5313,298.125 L338.5313,303.1094 L343.7656,303.1094 L343.7656,304.3594 L336,304.3594 L336,291.4219 L343.4375,291.4219 L343.4375,292.6719 L338.5313,292.6719 L338.5313,296.8594 Z " fill="#000000"/><text fill="#000000" font-family="sans-serif" font-size="14" lengthAdjust="spacing" textLength="77" x="360" y="303.7285">transactions</text><line style="stroke:#181818;stroke-width:0.5;" x1="299" x2="466" y1="314" y2="314"/><text fill="#000000" font-family="sans-serif" font-size="14" lengthAdjust="spacing" textLength="101" x="304" y="332.5332">id: BIGINT «PK»</text><line style="stroke:#181818;stroke-width:1.0;" x1="299" x2="466" y1="339.6094" y2="339.6094"/><text fill="#000000" font-family="sans-serif" font-size="14" lengthAdjust="spacing" textLength="157" x="304" y="358.1426">block_id: BIGINT «index»</text><text fill="#000000" font-family="sans-serif" font-size="14" lengthAdjust="spacing" textLength="139" x="304" y="375.752">hash: VARCHAR(191)</text><text fill="#000000" font-family="sans-serif" font-size="14" lengthAdjust="spacing" textLength="92" x="304" y="393.3613">raw_log: TEXT</text><text fill="#000000" font-family="sans-serif" font-size="14" lengthAdjust="spacing" textLength="145" x="304" y="410.9707">created_at: DATETIME</text><text fill="#000000" font-family="sans-serif" font-size="14" lengthAdjust="spacing" textLength="149" x="304" y="428.5801">updated_at: DATETIME</text></g><!--MD5=[496d0730ed66285dd669317e81c9f0fa]
class change_controller_messages--><g id="elem_change_controller_messages"><rect codeLine="21" fill="#F1F1F1" height="153.6563" id="change_controller_messages" rx="2.5" ry="2.5" style="stroke:#181818;stroke-width:0.5;" width="227" x="7" y="574.5"/><ellipse cx="26.05" cy="590.5" fill="#ADD1B2" rx="11" ry="11" style="stroke:#181818;stroke-width:1.0;"/><path d="M24.5813,589.3594 L29.0969,589.3594 L29.0969,590.625 L24.5813,590.625 L24.5813,595.6094 L29.8156,595.6094 L29.8156,596.8594 L22.05,596.8594 L22.05,583.9219 L29.4875,583.9219 L29.4875,585.1719 L24.5813,585.1719 L24.5813,589.3594 Z " fill="#000000"/><text fill="#000000" font-family="sans-serif" font-size="14" lengthAdjust="spacing" textLength="186" x="40.95" y="596.2285">change_controller_messages</text><line style="stroke:#181818;stroke-width:0.5;" x1="8" x2="233" y1="606.5" y2="606.5"/><text fill="#000000" font-family="sans-serif" font-size="14" lengthAdjust="spacing" textLength="101" x="13" y="625.0332">id: BIGINT «PK»</text><line style="stroke:#181818;stroke-width:1.0;" x1="8" x2="233" y1="632.1094" y2="632.1094"/><text fill="#000000" font-family="sans-serif" font-size="14" lengthAdjust="spacing" textLength="194" x="13" y="650.6426">transaction_id: BIGINT «index»</text><text fill="#000000" font-family="sans-serif" font-size="14" lengthAdjust="spacing" textLength="215" x="13" y="668.252">identifier: VARCHAR(191) «index»</text><text fill="#000000" font-family="sans-serif" font-size="14" lengthAdjust="spacing" textLength="200" x="13" y="685.8613">new_controller: VARCHAR(191)</text><text fill="#000000" font-family="sans-serif" font-size="14" lengthAdjust="spacing" textLength="145" x="13" y="703.4707">created_at: DATETIME</text><text fill="#000000" font-family="sans-serif" font-size="14" lengthAdjust="spacing" textLength="149" x="13" y="721.0801">updated_at: DATETIME</text></g><!--MD5=[8bb7435d9d399d769c9c02cf625f3f9b]
class set_attribute_messages--><g id="elem_set_attribute_messages"><rect codeLine="31" fill="#F1F1F1" height="188.875" id="set_attribute_messages" rx="2.5" ry="2.5" style="stroke:#181818;stroke-width:0.5;" width="227" x="269" y="557"/><ellipse cx="303.8" cy="573" fill="#ADD1B2" rx="11" ry="11" style="stroke:#181818;stroke-width:1.0;"/><path d="M302.3313,571.8594 L306.8469,571.8594 L306.8469,573.125 L302.3313,573.125 L302.3313,578.1094 L307.5656,578.1094 L307.5656,579.3594 L299.8,579.3594 L299.8,566.4219 L307.2375,566.4219 L307.2375,567.6719 L302.3313,567.6719 L302.3313,571.8594 Z " fill="#000000"/><text fill="#000000" font-family="sans-serif" font-size="14" lengthAdjust="spacing" textLength="151" x="322.2" y="578.7285">set_attribute_messages</text><line style="stroke:#181818;stroke-width:0.5;" x1="270" x2="495" y1="589" y2="589"/><text fill="#000000" font-family="sans-serif" font-size="14" lengthAdjust="spacing" textLength="101" x="275" y="607.5332">id: BIGINT «PK»</text><line style="stroke:#181818;stroke-width:1.0;" x1="270" x2="495" y1="614.6094" y2="614.6094"/><text fill="#000000" font-family="sans-serif" font-size="14" lengthAdjust="spacing" textLength="194" x="275" y="633.1426">transaction_id: BIGINT «index»</text><text fill="#000000" font-family="sans-serif" font-size="14" lengthAdjust="spacing" textLength="215" x="275" y="650.752">identifier: VARCHAR(191) «index»</text><text fill="#000000" font-family="sans-serif" font-size="14" lengthAdjust="spacing" textLength="78" x="275" y="668.3613">name: TEXT</text><text fill="#000000" font-family="sans-serif" font-size="14" lengthAdjust="spacing" textLength="77" x="275" y="685.9707">value: TEXT</text><text fill="#000000" font-family="sans-serif" font-size="14" lengthAdjust="spacing" textLength="95" x="275" y="703.5801">validity: BIGINT</text><text fill="#000000" font-family="sans-serif" font-size="14" lengthAdjust="spacing" textLength="145" x="275" y="721.1895">created_at: DATETIME</text><text fill="#000000" font-family="sans-serif" font-size="14" lengthAdjust="spacing" textLength="149" x="275" y="738.7988">updated_at: DATETIME</text></g><!--MD5=[f2de185cc0680a346fb170b36ee557af]
class revoke_attribute_messages--><g id="elem_revoke_attribute_messages"><rect codeLine="43" fill="#F1F1F1" height="171.2656" id="revoke_attribute_messages" rx="2.5" ry="2.5" style="stroke:#181818;stroke-width:0.5;" width="227" x="531" y="566"/><ellipse cx="555" cy="582" fill="#ADD1B2" rx="11" ry="11" style="stroke:#181818;stroke-width:1.0;"/><path d="M553.5313,580.8594 L558.0469,580.8594 L558.0469,582.125 L553.5313,582.125 L553.5313,587.1094 L558.7656,587.1094 L558.7656,588.3594 L551,588.3594 L551,575.4219 L558.4375,575.4219 L558.4375,576.6719 L553.5313,576.6719 L553.5313,580.8594 Z " fill="#000000"/><text fill="#000000" font-family="sans-serif" font-size="14" lengthAdjust="spacing" textLength="175" x="571" y="587.7285">revoke_attribute_messages</text><line style="stroke:#181818;stroke-width:0.5;" x1="532" x2="757" y1="598" y2="598"/><text fill="#000000" font-family="sans-serif" font-size="14" lengthAdjust="spacing" textLength="101" x="537" y="616.5332">id: BIGINT «PK»</text><line style="stroke:#181818;stroke-width:1.0;" x1="532" x2="757" y1="623.6094" y2="623.6094"/><text fill="#000000" font-family="sans-serif" font-size="14" lengthAdjust="spacing" textLength="194" x="537" y="642.1426">transaction_id: BIGINT «index»</text><text fill="#000000" font-family="sans-serif" font-size="14" lengthAdjust="spacing" textLength="215" x="537" y="659.752">identifier: VARCHAR(191) «index»</text><text fill="#000000" font-family="sans-serif" font-size="14" lengthAdjust="spacing" textLength="78" x="537" y="677.3613">name: TEXT</text><text fill="#000000" font-family="sans-serif" font-size="14" lengthAdjust="spacing" textLength="77" x="537" y="694.9707">value: TEXT</text><text fill="#000000" font-family="sans-serif" font-size="14" lengthAdjust="spacing" textLength="145" x="537" y="712.5801">created_at: DATETIME</text><text fill="#000000" font-family="sans-serif" font-size="14" lengthAdjust="spacing" textLength="149" x="537" y="730.1895">updated_at: DATETIME</text></g><!--MD5=[301f2e77308a9ba28a66bf4bdcec452a]
class controllers--><g id="elem_controllers"><rect codeLine="54" fill="#F1F1F1" height="153.6563" id="controllers" rx="2.5" ry="2.5" style="stroke:#181818;stroke-width:0.5;" width="227" x="498" y="7"/><ellipse cx="574.25" cy="23" fill="#ADD1B2" rx="11" ry="11" style="stroke:#181818;stroke-width:1.0;"/><path d="M572.7813,21.8594 L577.2969,21.8594 L577.2969,23.125 L572.7813,23.125 L572.7813,28.1094 L578.0156,28.1094 L578.0156,29.3594 L570.25,29.3594 L570.25,16.4219 L577.6875,16.4219 L577.6875,17.6719 L572.7813,17.6719 L572.7813,21.8594 Z " fill="#000000"/><text fill="#000000" font-family="sans-serif" font-size="14" lengthAdjust="spacing" textLength="66" x="594.75" y="28.7285">controllers</text><line style="stroke:#181818;stroke-width:0.5;" x1="499" x2="724" y1="39" y2="39"/><text fill="#000000" font-family="sans-serif" font-size="14" lengthAdjust="spacing" textLength="101" x="504" y="57.5332">id: BIGINT «PK»</text><line style="stroke:#181818;stroke-width:1.0;" x1="499" x2="724" y1="64.6094" y2="64.6094"/><text fill="#000000" font-family="sans-serif" font-size="14" lengthAdjust="spacing" textLength="215" x="504" y="83.1426">identifier: VARCHAR(191) «index»</text><text fill="#000000" font-family="sans-serif" font-size="14" lengthAdjust="spacing" textLength="98" x="504" y="100.752">version: BIGINT</text><text fill="#000000" font-family="sans-serif" font-size="14" lengthAdjust="spacing" textLength="167" x="504" y="118.3613">controller: VARCHAR(191)</text><text fill="#000000" font-family="sans-serif" font-size="14" lengthAdjust="spacing" textLength="145" x="504" y="135.9707">created_at: DATETIME</text><text fill="#000000" font-family="sans-serif" font-size="14" lengthAdjust="spacing" textLength="149" x="504" y="153.5801">updated_at: DATETIME</text></g><!--MD5=[590eedcf42c4b840e61ab79854d36b1e]
class documents--><g id="elem_documents"><rect codeLine="64" fill="#F1F1F1" height="153.6563" id="documents" rx="2.5" ry="2.5" style="stroke:#181818;stroke-width:0.5;" width="227" x="760" y="7"/><ellipse cx="834.75" cy="23" fill="#ADD1B2" rx="11" ry="11" style="stroke:#181818;stroke-width:1.0;"/><path d="M833.2813,21.8594 L837.7969,21.8594 L837.7969,23.125 L833.2813,23.125 L833.2813,28.1094 L838.5156,28.1094 L838.5156,29.3594 L830.75,29.3594 L830.75,16.4219 L838.1875,16.4219 L838.1875,17.6719 L833.2813,17.6719 L833.2813,21.8594 Z " fill="#000000"/><text fill="#000000" font-family="sans-serif" font-size="14" lengthAdjust="spacing" textLength="69" x="855.25" y="28.7285">documents</text><line style="stroke:#181818;stroke-width:0.5;" x1="761" x2="986" y1="39" y2="39"/><text fill="#000000" font-family="sans-serif" font-size="14" lengthAdjust="spacing" textLength="101" x="766" y="57.5332">id: BIGINT «PK»</text><line style="stroke:#181818;stroke-width:1.0;" x1="761" x2="986" y1="64.6094" y2="64.6094"/><text fill="#000000" font-family="sans-serif" font-size="14" lengthAdjust="spacing" textLength="215" x="766" y="83.1426">identifier: VARCHAR(191) «index»</text><text fill="#000000" font-family="sans-serif" font-size="14" lengthAdjust="spacing" textLength="98" x="766" y="100.752">version: BIGINT</text><text fill="#000000" font-family="sans-serif" font-size="14" lengthAdjust="spacing" textLength="90" x="766" y="118.3613">content: TEXT</text><text fill="#000000" font-family="sans-serif" font-size="14" lengthAdjust="spacing" textLength="145" x="766" y="135.9707">created_at: DATETIME</text><text fill="#000000" font-family="sans-serif" font-size="14" lengthAdjust="spacing" textLength="149" x="766" y="153.5801">updated_at: DATETIME</text></g><!--MD5=[44b8788477082afc443424fe0a5d017a]
link blocks to transactions--><g id="link_blocks_transactions"><path codeLine="74" d="M382.5,160.57 C382.5,195.74 382.5,237.69 382.5,273.86 " fill="none" id="blocks-transactions" style="stroke:#181818;stroke-width:1.0;"/><line style="stroke:#181818;stroke-width:1.0;" x1="382.5" x2="388.5" y1="273.96" y2="281.96"/><line style="stroke:#181818;stroke-width:1.0;" x1="382.5" x2="376.5" y1="273.96" y2="281.96"/><line style="stroke:#181818;stroke-width:1.0;" x1="382.5" x2="382.5" y1="273.96" y2="281.96"/><ellipse cx="382.5" cy="267.96" fill="none" rx="4" ry="4" style="stroke:#181818;stroke-width:1.0;"/><line style="stroke:#181818;stroke-width:1.0;" x1="378.5" x2="386.5" y1="156.13" y2="156.13"/><line style="stroke:#181818;stroke-width:1.0;" x1="378.5" x2="386.5" y1="159.13" y2="159.13"/><line style="stroke:#181818;stroke-width:1.0;" x1="382.5" x2="382.5" y1="160.13" y2="152.13"/></g><!--MD5=[aa33b91ec8118f13fb02ab088939c7fd]
link transactions to change_controller_messages--><g id="link_transactions_change_controller_messages"><path codeLine="75" d="M308.2,442.38 C272.68,481.77 230.26,528.8 194.74,568.18 " fill="none" id="transactions-change_controller_messages" style="stroke:#181818;stroke-width:1.0;"/><line style="stroke:#181818;stroke-width:1.0;" x1="194.4565" x2="193.5566" y1="568.4879" y2="578.4473"/><line style="stroke:#181818;stroke-width:1.0;" x1="194.4565" x2="184.6434" y1="568.4879" y2="570.4127"/><line style="stroke:#181818;stroke-width:1.0;" x1="194.4565" x2="189.1" y1="568.4879" y2="574.43"/><ellipse cx="198.4738" cy="564.0313" fill="none" rx="4" ry="4" style="stroke:#181818;stroke-width:1.0;"/><line style="stroke:#181818;stroke-width:1.0;" x1="308.0104" x2="313.9461" y1="436.6161" y2="441.9796"/><line style="stroke:#181818;stroke-width:1.0;" x1="305.999" x2="311.9347" y1="438.8419" y2="444.2055"/><line style="stroke:#181818;stroke-width:1.0;" x1="308.2964" x2="313.66" y1="442.2657" y2="436.33"/></g><!--MD5=[4e24ec5b271df59b14d2d24c9c484921]
link transactions to set_attribute_messages--><g id="link_transactions_set_attribute_messages"><path codeLine="76" d="M382.5,444.66 C382.5,477.21 382.5,514.7 382.5,548.69 " fill="none" id="transactions-set_attribute_messages" style="stroke:#181818;stroke-width:1.0;"/><line style="stroke:#181818;stroke-width:1.0;" x1="382.5" x2="388.5" y1="548.79" y2="556.79"/><line style="stroke:#181818;stroke-width:1.0;" x1="382.5" x2="376.5" y1="548.79" y2="556.79"/><line style="stroke:#181818;stroke-width:1.0;" x1="382.5" x2="382.5" y1="548.79" y2="556.79"/><ellipse cx="382.5" cy="542.79" fill="none" rx="4" ry="4" style="stroke:#181818;stroke-width:1.0;"/><line style="stroke:#181818;stroke-width:1.0;" x1="378.5" x2="386.5" y1="440.33" y2="440.33"/><line style="stroke:#181818;stroke-width:1.0;" x1="378.5" x2="386.5" y1="443.33" y2="443.33"/><line style="stroke:#181818;stroke-width:1.0;" x1="382.5" x2="382.5" y1="444.33" y2="436.33"/></g><!--MD5=[d37eb5d29e331f5a41ef0f8d0e332181]
link transactions to revoke_attribute_messages--><g id="link_transactions_revoke_attribute_messages"><path codeLine="77" d="M456.87,442.46 C489.96,479.14 529.01,522.44 562.89,560.01 " fill="none" id="transactions-revoke_attribute_messages" style="stroke:#181818;stroke-width:1.0;"/><line style="stroke:#181818;stroke-width:1.0;" x1="562.9235" x2="572.7366" y1="560.0479" y2="561.9727"/><line style="stroke:#181818;stroke-width:1.0;" x1="562.9235" x2="563.8234" y1="560.0479" y2="570.0073"/><line style="stroke:#181818;stroke-width:1.0;" x1="562.9235" x2="568.28" y1="560.0479" y2="565.99"/><ellipse cx="558.9062" cy="555.5913" fill="none" rx="4" ry="4" style="stroke:#181818;stroke-width:1.0;"/><line style="stroke:#181818;stroke-width:1.0;" x1="451.0539" x2="456.9896" y1="441.9796" y2="436.6161"/><line style="stroke:#181818;stroke-width:1.0;" x1="453.0653" x2="459.001" y1="444.2055" y2="438.8419"/><line style="stroke:#181818;stroke-width:1.0;" x1="456.7036" x2="451.34" y1="442.2657" y2="436.33"/></g><!--MD5=[fa4c2872309fb7d400c6aed53a1506d0]
@startuml

entity blocks {
  id: BIGINT <<PK>>
  - -
  height: BIGINT
  time: DATETIME
  created_at: DATETIME
  updated_at: DATETIME
}

entity transactions {
  id: BIGINT <<PK>>
  - -
  block_id: BIGINT <<index>>
  hash: VARCHAR(191)
  raw_log: TEXT
  created_at: DATETIME
  updated_at: DATETIME
}

entity change_controller_messages {
  id: BIGINT <<PK>>
  - -
  transaction_id: BIGINT <<index>>
  identifier: VARCHAR(191) <<index>>
  new_controller: VARCHAR(191)
  created_at: DATETIME
  updated_at: DATETIME
}

entity set_attribute_messages {
  id: BIGINT <<PK>>
  - -
  transaction_id: BIGINT <<index>>
  identifier: VARCHAR(191) <<index>>
  name: TEXT
  value: TEXT
  validity: BIGINT
  created_at: DATETIME
  updated_at: DATETIME
}

entity revoke_attribute_messages {
  id: BIGINT <<PK>>
  - -
  transaction_id: BIGINT <<index>>
  identifier: VARCHAR(191) <<index>>
  name: TEXT
  value: TEXT
  created_at: DATETIME
  updated_at: DATETIME
}

entity controllers { 
  id: BIGINT <<PK>>
  - -
  identifier: VARCHAR(191) <<index>>
  version: BIGINT
  controller: VARCHAR(191)
  created_at: DATETIME
  updated_at: DATETIME
}

entity documents {
  id: BIGINT <<PK>>
  - -
  identifier: VARCHAR(191) <<index>>
  version: BIGINT
  content: TEXT
  created_at: DATETIME
  updated_at: DATETIME
}

blocks ||- - -o{ transactions
transactions ||- - -o{ change_controller_messages
transactions ||- - -o{ set_attribute_messages
transactions ||- - -o{ revoke_attribute_messages

@enduml

PlantUML version 1.2022.7(Tue Aug 23 00:01:30 ICT 2022)
(GPL source distribution)
Java Runtime: Java(TM) SE Runtime Environment
JVM: Java HotSpot(TM) 64-Bit Server VM
Default Encoding: MS932
Language: en
Country: US
--></g></svg>