<?xml version="1.0" encoding="UTF-8" standalone="no"?><svg xmlns="http://www.w3.org/2000/svg" xmlns:xlink="http://www.w3.org/1999/xlink" contentStyleType="text/css" height="990px" preserveAspectRatio="none" style="width:1559px;height:990px;background:#FFFFFF;" version="1.1" viewBox="0 0 1559 990" width="1559px" zoomAndPan="magnify"><defs/><g><!--MD5=[d1aca5112466275106e9a5da8befcbb3]
class blocks--><g id="elem_blocks"><rect codeLine="2" fill="#F1F1F1" height="118.4375" id="blocks" rx="2.5" ry="2.5" style="stroke:#181818;stroke-width:0.5;" width="161" x="383" y="7"/><ellipse cx="439.25" cy="23" fill="#ADD1B2" rx="11" ry="11" style="stroke:#181818;stroke-width:1.0;"/><path d="M437.7813,21.8594 L442.2969,21.8594 L442.2969,23.125 L437.7813,23.125 L437.7813,28.1094 L443.0156,28.1094 L443.0156,29.3594 L435.25,29.3594 L435.25,16.4219 L442.6875,16.4219 L442.6875,17.6719 L437.7813,17.6719 L437.7813,21.8594 Z " fill="#000000"/><text fill="#000000" font-family="sans-serif" font-size="14" lengthAdjust="spacing" textLength="40" x="459.75" y="28.7285">blocks</text><line style="stroke:#181818;stroke-width:0.5;" x1="384" x2="543" y1="39" y2="39"/><text fill="#000000" font-family="sans-serif" font-size="14" lengthAdjust="spacing" textLength="101" x="389" y="57.5332">id: BIGINT «PK»</text><line style="stroke:#181818;stroke-width:1.0;" x1="384" x2="543" y1="64.6094" y2="64.6094"/><text fill="#000000" font-family="sans-serif" font-size="14" lengthAdjust="spacing" textLength="141" x="389" y="83.1426">block_number: BIGINT</text><text fill="#000000" font-family="sans-serif" font-size="14" lengthAdjust="spacing" textLength="145" x="389" y="100.752">created_at: DATETIME</text><text fill="#000000" font-family="sans-serif" font-size="14" lengthAdjust="spacing" textLength="149" x="389" y="118.3613">updated_at: DATETIME</text></g><!--MD5=[7f8e26d1a6333c7a5877a54d3f917b5b]
class transactions--><g id="elem_transactions"><rect codeLine="10" fill="#F1F1F1" height="171.2656" id="transactions" rx="2.5" ry="2.5" style="stroke:#181818;stroke-width:0.5;" width="229" x="349" y="246"/><ellipse cx="420.75" cy="262" fill="#ADD1B2" rx="11" ry="11" style="stroke:#181818;stroke-width:1.0;"/><path d="M419.2813,260.8594 L423.7969,260.8594 L423.7969,262.125 L419.2813,262.125 L419.2813,267.1094 L424.5156,267.1094 L424.5156,268.3594 L416.75,268.3594 L416.75,255.4219 L424.1875,255.4219 L424.1875,256.6719 L419.2813,256.6719 L419.2813,260.8594 Z " fill="#000000"/><text fill="#000000" font-family="sans-serif" font-size="14" lengthAdjust="spacing" textLength="77" x="441.25" y="267.7285">transactions</text><line style="stroke:#181818;stroke-width:0.5;" x1="350" x2="577" y1="278" y2="278"/><text fill="#000000" font-family="sans-serif" font-size="14" lengthAdjust="spacing" textLength="101" x="355" y="296.5332">id: BIGINT «PK»</text><line style="stroke:#181818;stroke-width:1.0;" x1="350" x2="577" y1="303.6094" y2="303.6094"/><text fill="#000000" font-family="sans-serif" font-size="14" lengthAdjust="spacing" textLength="157" x="355" y="322.1426">block_id: BIGINT «index»</text><text fill="#000000" font-family="sans-serif" font-size="14" lengthAdjust="spacing" textLength="217" x="355" y="339.752">transaction_hash: VARCHAR(191)</text><text fill="#000000" font-family="sans-serif" font-size="14" lengthAdjust="spacing" textLength="195" x="355" y="357.3613">from_address: VARCHAR(191)</text><text fill="#000000" font-family="sans-serif" font-size="14" lengthAdjust="spacing" textLength="92" x="355" y="374.9707">raw_log: TEXT</text><text fill="#000000" font-family="sans-serif" font-size="14" lengthAdjust="spacing" textLength="145" x="355" y="392.5801">created_at: DATETIME</text><text fill="#000000" font-family="sans-serif" font-size="14" lengthAdjust="spacing" textLength="149" x="355" y="410.1895">updated_at: DATETIME</text></g><!--MD5=[e2c33fffb1708c225e0207b734210b8f]
class method_specific_strings--><g id="elem_method_specific_strings"><rect codeLine="21" fill="#F1F1F1" height="118.4375" id="method_specific_strings" rx="2.5" ry="2.5" style="stroke:#181818;stroke-width:0.5;" width="184" x="687.5" y="272.5"/><ellipse cx="702.5" cy="288.5" fill="#ADD1B2" rx="11" ry="11" style="stroke:#181818;stroke-width:1.0;"/><path d="M701.0313,287.3594 L705.5469,287.3594 L705.5469,288.625 L701.0313,288.625 L701.0313,293.6094 L706.2656,293.6094 L706.2656,294.8594 L698.5,294.8594 L698.5,281.9219 L705.9375,281.9219 L705.9375,283.1719 L701.0313,283.1719 L701.0313,287.3594 Z " fill="#000000"/><text fill="#000000" font-family="sans-serif" font-size="14" lengthAdjust="spacing" textLength="152" x="716.5" y="294.2285">method_specific_strings</text><line style="stroke:#181818;stroke-width:0.5;" x1="688.5" x2="870.5" y1="304.5" y2="304.5"/><text fill="#000000" font-family="sans-serif" font-size="14" lengthAdjust="spacing" textLength="101" x="693.5" y="323.0332">id: BIGINT «PK»</text><line style="stroke:#181818;stroke-width:1.0;" x1="688.5" x2="870.5" y1="330.1094" y2="330.1094"/><text fill="#000000" font-family="sans-serif" font-size="14" lengthAdjust="spacing" textLength="159" x="693.5" y="348.6426">address: VARCHAR(191)</text><text fill="#000000" font-family="sans-serif" font-size="14" lengthAdjust="spacing" textLength="145" x="693.5" y="366.252">created_at: DATETIME</text><text fill="#000000" font-family="sans-serif" font-size="14" lengthAdjust="spacing" textLength="149" x="693.5" y="383.8613">updated_at: DATETIME</text></g><!--MD5=[496d0730ed66285dd669317e81c9f0fa]
class change_controller_messages--><g id="elem_change_controller_messages"><rect codeLine="29" fill="#F1F1F1" height="171.2656" id="change_controller_messages" rx="2.5" ry="2.5" style="stroke:#181818;stroke-width:0.5;" width="281" x="323" y="538"/><ellipse cx="366.35" cy="554" fill="#ADD1B2" rx="11" ry="11" style="stroke:#181818;stroke-width:1.0;"/><path d="M364.8813,552.8594 L369.3969,552.8594 L369.3969,554.125 L364.8813,554.125 L364.8813,559.1094 L370.1156,559.1094 L370.1156,560.3594 L362.35,560.3594 L362.35,547.4219 L369.7875,547.4219 L369.7875,548.6719 L364.8813,548.6719 L364.8813,552.8594 Z " fill="#000000"/><text fill="#000000" font-family="sans-serif" font-size="14" lengthAdjust="spacing" textLength="186" x="386.65" y="559.7285">change_controller_messages</text><line style="stroke:#181818;stroke-width:0.5;" x1="324" x2="603" y1="570" y2="570"/><text fill="#000000" font-family="sans-serif" font-size="14" lengthAdjust="spacing" textLength="101" x="329" y="588.5332">id: BIGINT «PK»</text><line style="stroke:#181818;stroke-width:1.0;" x1="324" x2="603" y1="595.6094" y2="595.6094"/><text fill="#000000" font-family="sans-serif" font-size="14" lengthAdjust="spacing" textLength="194" x="329" y="614.1426">transaction_id: BIGINT «index»</text><text fill="#000000" font-family="sans-serif" font-size="14" lengthAdjust="spacing" textLength="269" x="329" y="631.752">method_specific_string_id: BIGINT «index»</text><text fill="#000000" font-family="sans-serif" font-size="14" lengthAdjust="spacing" textLength="194" x="329" y="649.3613">old_controller: VARCHAR(191)</text><text fill="#000000" font-family="sans-serif" font-size="14" lengthAdjust="spacing" textLength="200" x="329" y="666.9707">new_controller: VARCHAR(191)</text><text fill="#000000" font-family="sans-serif" font-size="14" lengthAdjust="spacing" textLength="145" x="329" y="684.5801">created_at: DATETIME</text><text fill="#000000" font-family="sans-serif" font-size="14" lengthAdjust="spacing" textLength="149" x="329" y="702.1895">updated_at: DATETIME</text></g><!--MD5=[8bb7435d9d399d769c9c02cf625f3f9b]
class set_attribute_messages--><g id="elem_set_attribute_messages"><rect codeLine="40" fill="#F1F1F1" height="171.2656" id="set_attribute_messages" rx="2.5" ry="2.5" style="stroke:#181818;stroke-width:0.5;" width="281" x="639" y="538"/><ellipse cx="699.75" cy="554" fill="#ADD1B2" rx="11" ry="11" style="stroke:#181818;stroke-width:1.0;"/><path d="M698.2813,552.8594 L702.7969,552.8594 L702.7969,554.125 L698.2813,554.125 L698.2813,559.1094 L703.5156,559.1094 L703.5156,560.3594 L695.75,560.3594 L695.75,547.4219 L703.1875,547.4219 L703.1875,548.6719 L698.2813,548.6719 L698.2813,552.8594 Z " fill="#000000"/><text fill="#000000" font-family="sans-serif" font-size="14" lengthAdjust="spacing" textLength="151" x="720.25" y="559.7285">set_attribute_messages</text><line style="stroke:#181818;stroke-width:0.5;" x1="640" x2="919" y1="570" y2="570"/><text fill="#000000" font-family="sans-serif" font-size="14" lengthAdjust="spacing" textLength="101" x="645" y="588.5332">id: BIGINT «PK»</text><line style="stroke:#181818;stroke-width:1.0;" x1="640" x2="919" y1="595.6094" y2="595.6094"/><text fill="#000000" font-family="sans-serif" font-size="14" lengthAdjust="spacing" textLength="194" x="645" y="614.1426">transaction_id: BIGINT «index»</text><text fill="#000000" font-family="sans-serif" font-size="14" lengthAdjust="spacing" textLength="269" x="645" y="631.752">method_specific_string_id: BIGINT «index»</text><text fill="#000000" font-family="sans-serif" font-size="14" lengthAdjust="spacing" textLength="65" x="645" y="649.3613">key: TEXT</text><text fill="#000000" font-family="sans-serif" font-size="14" lengthAdjust="spacing" textLength="77" x="645" y="666.9707">value: TEXT</text><text fill="#000000" font-family="sans-serif" font-size="14" lengthAdjust="spacing" textLength="145" x="645" y="684.5801">created_at: DATETIME</text><text fill="#000000" font-family="sans-serif" font-size="14" lengthAdjust="spacing" textLength="149" x="645" y="702.1895">updated_at: DATETIME</text></g><!--MD5=[f2de185cc0680a346fb170b36ee557af]
class revoke_attribute_messages--><g id="elem_revoke_attribute_messages"><rect codeLine="51" fill="#F1F1F1" height="136.0469" id="revoke_attribute_messages" rx="2.5" ry="2.5" style="stroke:#181818;stroke-width:0.5;" width="281" x="7" y="555.5"/><ellipse cx="55.75" cy="571.5" fill="#ADD1B2" rx="11" ry="11" style="stroke:#181818;stroke-width:1.0;"/><path d="M54.2813,570.3594 L58.7969,570.3594 L58.7969,571.625 L54.2813,571.625 L54.2813,576.6094 L59.5156,576.6094 L59.5156,577.8594 L51.75,577.8594 L51.75,564.9219 L59.1875,564.9219 L59.1875,566.1719 L54.2813,566.1719 L54.2813,570.3594 Z " fill="#000000"/><text fill="#000000" font-family="sans-serif" font-size="14" lengthAdjust="spacing" textLength="175" x="76.25" y="577.2285">revoke_attribute_messages</text><line style="stroke:#181818;stroke-width:0.5;" x1="8" x2="287" y1="587.5" y2="587.5"/><text fill="#000000" font-family="sans-serif" font-size="14" lengthAdjust="spacing" textLength="101" x="13" y="606.0332">id: BIGINT «PK»</text><line style="stroke:#181818;stroke-width:1.0;" x1="8" x2="287" y1="613.1094" y2="613.1094"/><text fill="#000000" font-family="sans-serif" font-size="14" lengthAdjust="spacing" textLength="194" x="13" y="631.6426">transaction_id: BIGINT «index»</text><text fill="#000000" font-family="sans-serif" font-size="14" lengthAdjust="spacing" textLength="269" x="13" y="649.252">method_specific_string_id: BIGINT «index»</text><text fill="#000000" font-family="sans-serif" font-size="14" lengthAdjust="spacing" textLength="145" x="13" y="666.8613">created_at: DATETIME</text><text fill="#000000" font-family="sans-serif" font-size="14" lengthAdjust="spacing" textLength="149" x="13" y="684.4707">updated_at: DATETIME</text></g><!--MD5=[301f2e77308a9ba28a66bf4bdcec452a]
class controllers--><g id="elem_controllers"><rect codeLine="60" fill="#F1F1F1" height="153.6563" id="controllers" rx="2.5" ry="2.5" style="stroke:#181818;stroke-width:0.5;" width="281" x="1271" y="546.5"/><ellipse cx="1374.25" cy="562.5" fill="#ADD1B2" rx="11" ry="11" style="stroke:#181818;stroke-width:1.0;"/><path d="M1372.7813,561.3594 L1377.2969,561.3594 L1377.2969,562.625 L1372.7813,562.625 L1372.7813,567.6094 L1378.0156,567.6094 L1378.0156,568.8594 L1370.25,568.8594 L1370.25,555.9219 L1377.6875,555.9219 L1377.6875,557.1719 L1372.7813,557.1719 L1372.7813,561.3594 Z " fill="#000000"/><text fill="#000000" font-family="sans-serif" font-size="14" lengthAdjust="spacing" textLength="66" x="1394.75" y="568.2285">controllers</text><line style="stroke:#181818;stroke-width:0.5;" x1="1272" x2="1551" y1="578.5" y2="578.5"/><text fill="#000000" font-family="sans-serif" font-size="14" lengthAdjust="spacing" textLength="117" x="1277" y="597.0332">id: INTEGER «PK»</text><line style="stroke:#181818;stroke-width:1.0;" x1="1272" x2="1551" y1="604.1094" y2="604.1094"/><text fill="#000000" font-family="sans-serif" font-size="14" lengthAdjust="spacing" textLength="269" x="1277" y="622.6426">method_specific_string_id: BIGINT «index»</text><text fill="#000000" font-family="sans-serif" font-size="14" lengthAdjust="spacing" textLength="170" x="1277" y="640.252">version_id: BIGINT «index»</text><text fill="#000000" font-family="sans-serif" font-size="14" lengthAdjust="spacing" textLength="159" x="1277" y="657.8613">address: VARCHAR(191)</text><text fill="#000000" font-family="sans-serif" font-size="14" lengthAdjust="spacing" textLength="145" x="1277" y="675.4707">created_at: DATETIME</text><text fill="#000000" font-family="sans-serif" font-size="14" lengthAdjust="spacing" textLength="149" x="1277" y="693.0801">updated_at: DATETIME</text></g><!--MD5=[c0d95453182301d4cc87cf1ba0b0bad2]
class attributes--><g id="elem_attributes"><rect codeLine="70" fill="#F1F1F1" height="171.2656" id="attributes" rx="2.5" ry="2.5" style="stroke:#181818;stroke-width:0.5;" width="281" x="955" y="538"/><ellipse cx="1061.75" cy="554" fill="#ADD1B2" rx="11" ry="11" style="stroke:#181818;stroke-width:1.0;"/><path d="M1060.2813,552.8594 L1064.7969,552.8594 L1064.7969,554.125 L1060.2813,554.125 L1060.2813,559.1094 L1065.5156,559.1094 L1065.5156,560.3594 L1057.75,560.3594 L1057.75,547.4219 L1065.1875,547.4219 L1065.1875,548.6719 L1060.2813,548.6719 L1060.2813,552.8594 Z " fill="#000000"/><text fill="#000000" font-family="sans-serif" font-size="14" lengthAdjust="spacing" textLength="59" x="1082.25" y="559.7285">attributes</text><line style="stroke:#181818;stroke-width:0.5;" x1="956" x2="1235" y1="570" y2="570"/><text fill="#000000" font-family="sans-serif" font-size="14" lengthAdjust="spacing" textLength="101" x="961" y="588.5332">id: BIGINT «PK»</text><line style="stroke:#181818;stroke-width:1.0;" x1="956" x2="1235" y1="595.6094" y2="595.6094"/><text fill="#000000" font-family="sans-serif" font-size="14" lengthAdjust="spacing" textLength="269" x="961" y="614.1426">method_specific_string_id: BIGINT «index»</text><text fill="#000000" font-family="sans-serif" font-size="14" lengthAdjust="spacing" textLength="170" x="961" y="631.752">version_id: BIGINT «index»</text><text fill="#000000" font-family="sans-serif" font-size="14" lengthAdjust="spacing" textLength="65" x="961" y="649.3613">key: TEXT</text><text fill="#000000" font-family="sans-serif" font-size="14" lengthAdjust="spacing" textLength="77" x="961" y="666.9707">value: TEXT</text><text fill="#000000" font-family="sans-serif" font-size="14" lengthAdjust="spacing" textLength="145" x="961" y="684.5801">created_at: DATETIME</text><text fill="#000000" font-family="sans-serif" font-size="14" lengthAdjust="spacing" textLength="149" x="961" y="702.1895">updated_at: DATETIME</text></g><!--MD5=[9c2c5ef5437573c4b588441c4ed927a3]
class attribute_validities--><g id="elem_attribute_validities"><rect codeLine="81" fill="#F1F1F1" height="153.6563" id="attribute_validities" rx="2.5" ry="2.5" style="stroke:#181818;stroke-width:0.5;" width="188" x="1001.5" y="830"/><ellipse cx="1035.4" cy="846" fill="#ADD1B2" rx="11" ry="11" style="stroke:#181818;stroke-width:1.0;"/><path d="M1033.9313,844.8594 L1038.4469,844.8594 L1038.4469,846.125 L1033.9313,846.125 L1033.9313,851.1094 L1039.1656,851.1094 L1039.1656,852.3594 L1031.4,852.3594 L1031.4,839.4219 L1038.8375,839.4219 L1038.8375,840.6719 L1033.9313,840.6719 L1033.9313,844.8594 Z " fill="#000000"/><text fill="#000000" font-family="sans-serif" font-size="14" lengthAdjust="spacing" textLength="114" x="1053.6" y="851.7285">attribute_validities</text><line style="stroke:#181818;stroke-width:0.5;" x1="1002.5" x2="1188.5" y1="862" y2="862"/><text fill="#000000" font-family="sans-serif" font-size="14" lengthAdjust="spacing" textLength="101" x="1007.5" y="880.5332">id: BIGINT «PK»</text><line style="stroke:#181818;stroke-width:1.0;" x1="1002.5" x2="1188.5" y1="887.6094" y2="887.6094"/><text fill="#000000" font-family="sans-serif" font-size="14" lengthAdjust="spacing" textLength="176" x="1007.5" y="906.1426">attribute_id: BIGINT «index»</text><text fill="#000000" font-family="sans-serif" font-size="14" lengthAdjust="spacing" textLength="170" x="1007.5" y="923.752">version_id: BIGINT «index»</text><text fill="#000000" font-family="sans-serif" font-size="14" lengthAdjust="spacing" textLength="126" x="1007.5" y="941.3613">valid_to: DATETIME</text><text fill="#000000" font-family="sans-serif" font-size="14" lengthAdjust="spacing" textLength="145" x="1007.5" y="958.9707">created_at: DATETIME</text><text fill="#000000" font-family="sans-serif" font-size="14" lengthAdjust="spacing" textLength="149" x="1007.5" y="976.5801">updated_at: DATETIME</text></g><!--MD5=[44b8788477082afc443424fe0a5d017a]
link blocks to transactions--><g id="link_blocks_transactions"><path codeLine="91" d="M463.5,133.21 C463.5,164.86 463.5,203.28 463.5,237.78 " fill="none" id="blocks-transactions" style="stroke:#181818;stroke-width:1.0;"/><line style="stroke:#181818;stroke-width:1.0;" x1="463.5" x2="469.5" y1="237.99" y2="245.99"/><line style="stroke:#181818;stroke-width:1.0;" x1="463.5" x2="457.5" y1="237.99" y2="245.99"/><line style="stroke:#181818;stroke-width:1.0;" x1="463.5" x2="463.5" y1="237.99" y2="245.99"/><ellipse cx="463.5" cy="231.99" fill="none" rx="4" ry="4" style="stroke:#181818;stroke-width:1.0;"/><line style="stroke:#181818;stroke-width:1.0;" x1="459.5" x2="467.5" y1="129.15" y2="129.15"/><line style="stroke:#181818;stroke-width:1.0;" x1="459.5" x2="467.5" y1="132.15" y2="132.15"/><line style="stroke:#181818;stroke-width:1.0;" x1="463.5" x2="463.5" y1="133.15" y2="125.15"/></g><!--MD5=[aa33b91ec8118f13fb02ab088939c7fd]
link transactions to change_controller_messages--><g id="link_transactions_change_controller_messages"><path codeLine="92" d="M463.5,425.28 C463.5,458.63 463.5,496.24 463.5,529.6 " fill="none" id="transactions-change_controller_messages" style="stroke:#181818;stroke-width:1.0;"/><line style="stroke:#181818;stroke-width:1.0;" x1="463.5" x2="469.5" y1="529.99" y2="537.99"/><line style="stroke:#181818;stroke-width:1.0;" x1="463.5" x2="457.5" y1="529.99" y2="537.99"/><line style="stroke:#181818;stroke-width:1.0;" x1="463.5" x2="463.5" y1="529.99" y2="537.99"/><ellipse cx="463.5" cy="523.99" fill="none" rx="4" ry="4" style="stroke:#181818;stroke-width:1.0;"/><line style="stroke:#181818;stroke-width:1.0;" x1="459.5" x2="467.5" y1="421.16" y2="421.16"/><line style="stroke:#181818;stroke-width:1.0;" x1="459.5" x2="467.5" y1="424.16" y2="424.16"/><line style="stroke:#181818;stroke-width:1.0;" x1="463.5" x2="463.5" y1="425.16" y2="417.16"/></g><!--MD5=[4e24ec5b271df59b14d2d24c9c484921]
link transactions to set_attribute_messages--><g id="link_transactions_set_attribute_messages"><path codeLine="93" d="M562.12,423 C600.1,457.86 643.44,497.63 681.37,532.44 " fill="none" id="transactions-set_attribute_messages" style="stroke:#181818;stroke-width:1.0;"/><line style="stroke:#181818;stroke-width:1.0;" x1="681.5157" x2="691.4668" y1="532.581" y2="533.5693"/><line style="stroke:#181818;stroke-width:1.0;" x1="681.5157" x2="683.3532" y1="532.581" y2="542.4107"/><line style="stroke:#181818;stroke-width:1.0;" x1="681.5157" x2="687.41" y1="532.581" y2="537.99"/><ellipse cx="677.095" cy="528.5242" fill="none" rx="4" ry="4" style="stroke:#181818;stroke-width:1.0;"/><line style="stroke:#181818;stroke-width:1.0;" x1="555.9858" x2="561.4019" y1="422.8119" y2="416.9242"/><line style="stroke:#181818;stroke-width:1.0;" x1="558.1937" x2="563.6098" y1="424.843" y2="418.9553"/><line style="stroke:#181818;stroke-width:1.0;" x1="561.6377" x2="555.75" y1="422.5761" y2="417.16"/></g><!--MD5=[d37eb5d29e331f5a41ef0f8d0e332181]
link transactions to revoke_attribute_messages--><g id="link_transactions_revoke_attribute_messages"><path codeLine="94" d="M365.3,422.62 C320.72,463.54 268.69,511.28 226.66,549.85 " fill="none" id="transactions-revoke_attribute_messages" style="stroke:#181818;stroke-width:1.0;"/><line style="stroke:#181818;stroke-width:1.0;" x1="226.4414" x2="224.5909" y1="550.0687" y2="559.896"/><line style="stroke:#181818;stroke-width:1.0;" x1="226.4414" x2="216.4891" y1="550.0687" y2="551.044"/><line style="stroke:#181818;stroke-width:1.0;" x1="226.4414" x2="220.54" y1="550.0687" y2="555.47"/><ellipse cx="230.8674" cy="546.0178" fill="none" rx="4" ry="4" style="stroke:#181818;stroke-width:1.0;"/><line style="stroke:#181818;stroke-width:1.0;" x1="365.5981" x2="371.0142" y1="416.9242" y2="422.8119"/><line style="stroke:#181818;stroke-width:1.0;" x1="363.3902" x2="368.8063" y1="418.9553" y2="424.843"/><line style="stroke:#181818;stroke-width:1.0;" x1="365.3623" x2="371.25" y1="422.5761" y2="417.16"/></g><!--MD5=[8493d2d250a54f667f9fa626a11879a8]
link method_specific_strings to change_controller_messages--><g id="link_method_specific_strings_change_controller_messages"><path codeLine="96" d="M709.92,396.36 C666.46,436.24 609.84,488.21 561.83,532.26 " fill="none" id="method_specific_strings-change_controller_messages" style="stroke:#181818;stroke-width:1.0;"/><line style="stroke:#181818;stroke-width:1.0;" x1="561.6149" x2="559.7763" y1="532.4616" y2="542.2911"/><line style="stroke:#181818;stroke-width:1.0;" x1="561.6149" x2="551.6637" y1="532.4616" y2="533.4489"/><line style="stroke:#181818;stroke-width:1.0;" x1="561.6149" x2="555.72" y1="532.4616" y2="537.87"/><ellipse cx="566.036" cy="528.4053" fill="none" rx="4" ry="4" style="stroke:#181818;stroke-width:1.0;"/><line style="stroke:#181818;stroke-width:1.0;" x1="710.2787" x2="715.6799" y1="390.5899" y2="396.4913"/><line style="stroke:#181818;stroke-width:1.0;" x1="708.0657" x2="713.4669" y1="392.6154" y2="398.5168"/><line style="stroke:#181818;stroke-width:1.0;" x1="710.0286" x2="715.93" y1="396.2413" y2="390.84"/></g><!--MD5=[e96600830f89c21a9daf7e6f127af2cc]
link method_specific_strings to set_attribute_messages--><g id="link_method_specific_strings_set_attribute_messages"><path codeLine="97" d="M779.5,398.92 C779.5,437.68 779.5,487.17 779.5,529.73 " fill="none" id="method_specific_strings-set_attribute_messages" style="stroke:#181818;stroke-width:1.0;"/><line style="stroke:#181818;stroke-width:1.0;" x1="779.5" x2="785.5" y1="529.87" y2="537.87"/><line style="stroke:#181818;stroke-width:1.0;" x1="779.5" x2="773.5" y1="529.87" y2="537.87"/><line style="stroke:#181818;stroke-width:1.0;" x1="779.5" x2="779.5" y1="529.87" y2="537.87"/><ellipse cx="779.5" cy="523.87" fill="none" rx="4" ry="4" style="stroke:#181818;stroke-width:1.0;"/><line style="stroke:#181818;stroke-width:1.0;" x1="775.5" x2="783.5" y1="394.84" y2="394.84"/><line style="stroke:#181818;stroke-width:1.0;" x1="775.5" x2="783.5" y1="397.84" y2="397.84"/><line style="stroke:#181818;stroke-width:1.0;" x1="779.5" x2="779.5" y1="398.84" y2="390.84"/></g><!--MD5=[fd4aad568c7e63119b98bdbcf75aed6b]
link method_specific_strings to revoke_attribute_messages--><g id="link_method_specific_strings_revoke_attribute_messages"><path codeLine="98" d="M679.53,379.19 C652.35,391.66 622.87,405.01 595.5,417 C467.58,473.04 431.67,478.11 305.5,538 C296.32,542.36 286.91,546.98 277.47,551.73 " fill="none" id="method_specific_strings-revoke_attribute_messages" style="stroke:#181818;stroke-width:1.0;"/><line style="stroke:#181818;stroke-width:1.0;" x1="277.3982" x2="272.9689" y1="551.7681" y2="560.7337"/><line style="stroke:#181818;stroke-width:1.0;" x1="277.3982" x2="267.5511" y1="551.7681" y2="550.0263"/><line style="stroke:#181818;stroke-width:1.0;" x1="277.3982" x2="270.26" y1="551.7681" y2="555.38"/><ellipse cx="282.7519" cy="549.0591" fill="none" rx="4" ry="4" style="stroke:#181818;stroke-width:1.0;"/><line style="stroke:#181818;stroke-width:1.0;" x1="681.8149" x2="685.1565" y1="373.7265" y2="380.9951"/><line style="stroke:#181818;stroke-width:1.0;" x1="679.0891" x2="682.4307" y1="374.9796" y2="382.2482"/><line style="stroke:#181818;stroke-width:1.0;" x1="679.8513" x2="687.12" y1="379.0316" y2="375.69"/></g><!--MD5=[99b57bc8ff237f98b404c21611fc230b]
link method_specific_strings to controllers--><g id="link_method_specific_strings_controllers"><path codeLine="100" d="M879.26,372.95 C975.93,412.81 1126.19,476.49 1253.5,538 C1256.82,539.6 1260.17,541.24 1263.54,542.9 " fill="none" id="method_specific_strings-controllers" style="stroke:#181818;stroke-width:1.0;"/><line style="stroke:#181818;stroke-width:1.0;" x1="1263.786" x2="1273.6204" y1="543.0195" y2="541.207"/><line style="stroke:#181818;stroke-width:1.0;" x1="1263.786" x2="1268.2796" y1="543.0195" y2="551.953"/><line style="stroke:#181818;stroke-width:1.0;" x1="1263.786" x2="1270.95" y1="543.0195" y2="546.58"/><ellipse cx="1258.413" cy="540.3491" fill="none" rx="4" ry="4" style="stroke:#181818;stroke-width:1.0;"/><line style="stroke:#181818;stroke-width:1.0;" x1="873.9947" x2="877.0421" y1="375.1121" y2="367.7153"/><line style="stroke:#181818;stroke-width:1.0;" x1="876.7685" x2="879.8159" y1="376.2549" y2="368.8581"/><line style="stroke:#181818;stroke-width:1.0;" x1="879.2168" x2="871.82" y1="372.9374" y2="369.89"/></g><!--MD5=[52a2d7339dc940afe5592137bb2cc348]
link method_specific_strings to attributes--><g id="link_method_specific_strings_attributes"><path codeLine="101" d="M849.08,396.36 C892.54,436.24 949.16,488.21 997.17,532.26 " fill="none" id="method_specific_strings-attributes" style="stroke:#181818;stroke-width:1.0;"/><line style="stroke:#181818;stroke-width:1.0;" x1="997.3851" x2="1007.3363" y1="532.4616" y2="533.4489"/><line style="stroke:#181818;stroke-width:1.0;" x1="997.3851" x2="999.2237" y1="532.4616" y2="542.2911"/><line style="stroke:#181818;stroke-width:1.0;" x1="997.3851" x2="1003.28" y1="532.4616" y2="537.87"/><ellipse cx="992.964" cy="528.4053" fill="none" rx="4" ry="4" style="stroke:#181818;stroke-width:1.0;"/><line style="stroke:#181818;stroke-width:1.0;" x1="843.3201" x2="848.7213" y1="396.4913" y2="390.5899"/><line style="stroke:#181818;stroke-width:1.0;" x1="845.5331" x2="850.9343" y1="398.5168" y2="392.6154"/><line style="stroke:#181818;stroke-width:1.0;" x1="848.9714" x2="843.07" y1="396.2413" y2="390.84"/></g><!--MD5=[500b79dc1d83741b23cda25be9396e8a]
link attributes to attribute_validities--><g id="link_attributes_attribute_validities"><path codeLine="102" d="M1095.5,717.53 C1095.5,751.15 1095.5,788.89 1095.5,821.71 " fill="none" id="attributes-attribute_validities" style="stroke:#181818;stroke-width:1.0;"/><line style="stroke:#181818;stroke-width:1.0;" x1="1095.5" x2="1101.5" y1="821.95" y2="829.95"/><line style="stroke:#181818;stroke-width:1.0;" x1="1095.5" x2="1089.5" y1="821.95" y2="829.95"/><line style="stroke:#181818;stroke-width:1.0;" x1="1095.5" x2="1095.5" y1="821.95" y2="829.95"/><ellipse cx="1095.5" cy="815.95" fill="none" rx="4" ry="4" style="stroke:#181818;stroke-width:1.0;"/><line style="stroke:#181818;stroke-width:1.0;" x1="1091.5" x2="1099.5" y1="713.34" y2="713.34"/><line style="stroke:#181818;stroke-width:1.0;" x1="1091.5" x2="1099.5" y1="716.34" y2="716.34"/><line style="stroke:#181818;stroke-width:1.0;" x1="1095.5" x2="1095.5" y1="717.34" y2="709.34"/></g><!--MD5=[dcda8bdf0cb8d52256910ac2833a1d81]
@startuml

entity blocks {
  id: BIGINT <<PK>>
  - -
  block_number: BIGINT
  created_at: DATETIME
  updated_at: DATETIME
}

entity transactions {
  id: BIGINT <<PK>>
  - -
  block_id: BIGINT <<index>>
  transaction_hash: VARCHAR(191)
  from_address: VARCHAR(191)
  raw_log: TEXT
  created_at: DATETIME
  updated_at: DATETIME
}

entity method_specific_strings {
  id: BIGINT <<PK>>
  - -
  address: VARCHAR(191)
  created_at: DATETIME
  updated_at: DATETIME
}

entity change_controller_messages {
  id: BIGINT <<PK>>
  - -
  transaction_id: BIGINT <<index>>
  method_specific_string_id: BIGINT <<index>>
  old_controller: VARCHAR(191)
  new_controller: VARCHAR(191)
  created_at: DATETIME
  updated_at: DATETIME
}

entity set_attribute_messages {
  id: BIGINT <<PK>>
  - -
  transaction_id: BIGINT <<index>>
  method_specific_string_id: BIGINT <<index>>
  key: TEXT
  value: TEXT
  created_at: DATETIME
  updated_at: DATETIME
}

entity revoke_attribute_messages {
  id: BIGINT <<PK>>
  - -
  transaction_id: BIGINT <<index>>
  method_specific_string_id: BIGINT <<index>>
  created_at: DATETIME
  updated_at: DATETIME
}

entity controllers { 
  id: INTEGER <<PK>>
  - -
  method_specific_string_id: BIGINT <<index>>
  version_id: BIGINT <<index>>
  address: VARCHAR(191)
  created_at: DATETIME
  updated_at: DATETIME
}

entity attributes {
  id: BIGINT <<PK>>
  - -
  method_specific_string_id: BIGINT <<index>>
  version_id: BIGINT <<index>>
  key: TEXT
  value: TEXT
  created_at: DATETIME
  updated_at: DATETIME
}

entity attribute_validities {
  id: BIGINT <<PK>>
  - -
  attribute_id: BIGINT <<index>>
  version_id: BIGINT <<index>>
  valid_to: DATETIME
  created_at: DATETIME
  updated_at: DATETIME
}

blocks ||- - -o{ transactions
transactions ||- - -o{ change_controller_messages
transactions ||- - -o{ set_attribute_messages
transactions ||- - -o{ revoke_attribute_messages

method_specific_strings ||- - -o{ change_controller_messages
method_specific_strings ||- - -o{ set_attribute_messages
method_specific_strings ||- - -o{ revoke_attribute_messages

method_specific_strings ||- - -o{ controllers
method_specific_strings ||- - -o{ attributes
attributes ||- - -o{ attribute_validities

@enduml

PlantUML version 1.2022.7(Tue Aug 23 02:01:30 JST 2022)
(GPL source distribution)
Java Runtime: Java(TM) SE Runtime Environment
JVM: Java HotSpot(TM) 64-Bit Server VM
Default Encoding: MS932
Language: en
Country: US
--></g></svg>